<svg xmlns="http://www.w3.org/2000/svg" width="100" height="100" viewBox="0 0 100 100" fill="none">
  <!-- Photon "Original camera" logo (see ui/src/lib/logo.ts, mark 'vintage'). -->
  <defs><linearGradient id="vgg1" x1="0" x2="1" y1="0" y2="1"><stop offset="0" stop-color="#6366F1"/><stop offset="1" stop-color="#A855F7"/></linearGradient></defs><path d="M34 16 L40 5 L60 5 L66 16 Z" fill="url(#vgg1)"/><rect x="8" y="14" width="84" height="72" rx="20" fill="url(#vgg1)"/><circle cx="50" cy="53" r="22" fill="#fff"/><path d="M70 53 L60 70.32 L56.96 57.7 L57.55 49.32 Z" fill="#6366F1" opacity="1"/><path d="M60 70.32 L40 70.32 L49.41 61.38 L56.96 57.7 Z" fill="#6366F1" opacity="0.78"/><path d="M40 70.32 L30 53 L42.45 56.68 L49.41 61.38 Z" fill="#6366F1" opacity="1"/><path d="M30 53 L40 35.68 L43.04 48.3 L42.45 56.68 Z" fill="#6366F1" opacity="0.78"/><path d="M40 35.68 L60 35.68 L50.59 44.62 L43.04 48.3 Z" fill="#6366F1" opacity="1"/><path d="M60 35.68 L70 53 L57.55 49.32 L50.59 44.62 Z" fill="#6366F1" opacity="0.78"/><circle cx="74" cy="30" r="5" fill="#fff"/>
</svg>
